<svg xmlns="http://www.w3.org/2000/svg" version="1.1" xmlns:xlink="http://www.w3.org/1999/xlink" xmlns:svgjs="http://svgjs.dev/svgjs" width="100%" height="100%" viewBox="0 0 1000 600"><rect width="1000" height="600" x="0" y="0" fill="#c2c2c2"/><g><rect width="333.3333333333333" height="333.3333333333333" rx="13.333333333333334" ry="13.333333333333334" y="166.39284723083674" fill="#141414" transform="matrix(0.8670282859511218,0,0,0.8670282859511218,0,11.227995385265814)" x="144.17062377929685"/><path d="M352.9252771373572 367.8819672090453L352.9252771373572 372.25286650147865Q352.9252771373572 379.66313285156417 349.914856432635 386.17606226081904Q346.9044357279127 392.6889916700739 341.86777031808896 397.5809253152476Q336.8311049082652 402.4728589604213 330.1734437343602 405.2806551946334Q323.5157825604552 408.0595050759155 316.0765698574396 408.0595050759155L316.0765698574396 408.0595050759155L305.59799009677175 408.0595050759155Q298.15877739375617 408.0595050759155 291.50111621985116 405.2806551946334Q284.8434550459462 402.4728589604213 279.80678963612235 397.5809253152476Q274.7701242262986 392.6889916700739 271.75970352157634 386.17606226081904Q268.7492828168541 379.66313285156417 268.7492828168541 372.25286650147865L268.7492828168541 372.25286650147865L268.7492828168541 366.4346495625443L281.89092704708395 364.32156579865267L281.89092704708395 372.25286650147865Q281.89092704708395 377.14480014665224 283.8592790463254 381.34202132150546Q285.8565773984969 385.56818884928856 289.21435433837945 388.781234024521Q292.57213127826196 391.9942791997534 297.0009232765553 393.8178994343447Q301.4297152748486 395.64151966893616 306.32164892002226 395.64151966893616L306.32164892002226 395.64151966893616L315.4686964459092 395.64151966893616Q320.3606300910828 395.64151966893616 324.73152938351615 393.8178994343447Q329.1024286759494 391.9942791997534 332.46020561583185 388.781234024521Q335.8179825557144 385.56818884928856 337.8152809078859 381.34202132150546Q339.78363290712736 377.14480014665224 339.78363290712736 372.25286650147865L339.78363290712736 372.25286650147865L339.78363290712736 367.8819672090453Q339.78363290712736 360.3269690943096 336.8311049082652 355.3481963903459Q333.87857690940297 350.36942368638216 329.0155896171593 346.86691498184956Q324.12365597198567 343.33545992438684 317.958082797891 340.90396627826505Q311.82145597672644 338.47247263214325 305.3085265674715 336.01203263309145Q298.7955971582166 333.58053898696954 292.63002398412203 330.6280109881074Q286.46445081002736 327.67548298924515 281.5725171648537 323.2466909909518Q276.70952987261006 318.8178989926585 273.7570018737478 312.4207549951237Q270.8044738748856 305.9946646446589 270.8044738748856 296.6449926482619L270.8044738748856 296.6449926482619L270.8044738748856 293.8950891199098Q270.8044738748856 286.45587641689417 273.5833237561677 279.9429470076393Q276.3911199903798 273.43001759838444 281.2830536355535 268.53808395321073Q286.1749872807272 263.67509666096714 292.71686304291205 260.86730042675504Q299.28768515802705 258.05950419254293 306.7268978610426 258.05950419254293L306.7268978610426 258.05950419254293L316.0765698574396 258.05950419254293Q323.5157825604552 258.05950419254293 330.02871196971006 260.86730042675504Q336.5416413789649 263.67509666096714 341.43357502413863 268.53808395321073Q346.29656231638234 273.43001759838444 349.10435855059444 279.9429470076393Q351.9121547848065 286.45587641689417 351.9121547848065 293.8950891199098L351.9121547848065 293.8950891199098L351.9121547848065 297.6581150008126L338.7705105545767 299.8001451176342L338.7705105545767 293.8950891199098Q338.7705105545767 289.0031554747361 336.94689031998524 284.77698794695294Q335.1232700853939 280.5508204191698 331.9681176160215 277.39566794979737Q328.81296514664916 274.2405154804251 324.586797618866 272.41689524583364Q320.3606300910828 270.5932750112423 315.4686964459092 270.5932750112423L315.4686964459092 270.5932750112423L307.33477127257305 270.5932750112423Q302.44283762739934 270.5932750112423 298.21667009961624 272.41689524583364Q293.990502571833 274.2405154804251 290.8064037495306 277.39566794979737Q287.59335857429824 280.5508204191698 285.76973833970686 284.77698794695294Q283.9171717521855 289.0031554747361 283.9171717521855 293.8950891199098L283.9171717521855 293.8950891199098L283.9171717521855 296.6449926482619Q283.9171717521855 303.6500100573271 286.8696997510477 308.4551046437107Q289.8222277499099 313.2312528771643 294.7141613950836 316.6469225229069Q299.60609504025723 320.03364581571935 305.7427218614219 322.5230321677013Q311.90829503551646 325.0413648726132 318.4212244447713 327.61759028338514Q324.93415385402625 330.2227620470871 331.09972702812087 333.32002181059937Q337.23635384928554 336.41728157411166 342.12828749445913 340.96185898412506Q347.02022113963284 345.47749004120845 349.9727491384951 351.99041945046343Q352.9252771373572 358.5033488597183 352.9252771373572 367.8819672090453L352.9252771373572 367.8819672090453Z " fill="#4f4e4e" transform="matrix(0.8670282859511218,0,0,0.8670282859511218,0,11.227995385265814)"/><path d="M624.0585086147167 374.7133142180566L616.3294126202901 347.54577320770676L579.396367090036 347.54577320770676L571.7366941135234 374.7133142180566L560.8372803010236 374.7133142180566L595.0165461206885 258.05950311654595L600.5472465478382 258.05950311654595L634.8884994093025 374.7133142180566L624.0585086147167 374.7133142180566ZM597.5389157715643 283.76916075070153L582.2427108245105 337.5257176221177L613.5524919037297 337.5257176221177L598.1868639387618 283.76916075070153L597.8628898551631 279.44179263406147L597.5389157715643 283.76916075070153ZM681.0085243101774 300.91664617546235L670.9884687245885 300.91664617546235Q667.9801379483147 300.91664617546235 665.3420632675823 302.07369647402925Q662.7039885868498 303.20760576662474 660.7601440852575 305.1514502682171Q658.7931585776938 307.11843577578077 657.6592492850983 309.7565104565132Q656.5253399925027 312.39458513724554 656.5253399925027 315.4029159135194L656.5253399925027 315.4029159135194L656.5253399925027 374.7133142180566L646.5052844069138 374.7133142180566L646.5052844069138 291.40569272124276L649.8375892667863 291.40569272124276L655.2988666760219 299.87530090675216Q658.7237355597798 295.2239587065135 663.8841798913879 292.49332000189565Q669.0446242229962 289.78582230324923 675.1538497994292 289.78582230324923L675.1538497994292 289.78582230324923L681.0085243101774 289.78582230324923L681.0085243101774 300.91664617546235ZM733.8162999367689 374.7133142180566L724.6987435840621 374.7133142180566Q720.1399654077086 374.7133142180566 716.113430368696 373.00087977617756Q712.0868953296833 371.28844533429873 709.1248465653521 368.2801145580249Q706.1396567950496 365.271783781751 704.4040813471993 361.291530754681Q702.6453648933777 357.31127772761107 702.6453648933777 352.7524995512576L702.6453648933777 352.7524995512576L702.6453648933777 300.91664617546235L687.6731340299226 300.91664617546235L687.6731340299226 291.40569272124276L702.6453648933777 291.40569272124276L702.6453648933777 271.38872255603616L712.6422794729954 269.7688521380426L712.6422794729954 291.40569272124276L733.8162999367689 291.40569272124276L733.8162999367689 300.91664617546235L712.6422794729954 300.91664617546235L712.6422794729954 353.23846067665573Q712.6422794729954 355.76083032753144 713.5910607178203 357.9129438828658Q714.5167009566737 360.0650574382001 716.1597123806387 361.6849278561937Q717.7795827986322 363.32793928015866 719.9779783659093 364.25357951901213Q722.1763739331863 365.202360763837 724.6987435840621 365.202360763837L724.6987435840621 365.202360763837L733.8162999367689 365.202360763837L733.8162999367689 374.7133142180566ZM819.4611630366876 347.70776024950607L819.4611630366876 347.70776024950607Q819.4611630366876 353.63185777816847 817.2396264634393 358.8385841217193Q814.9949488842196 364.0453104652701 811.0841188750636 367.95614047442615Q807.196429871879 371.86697048358207 801.9897035283282 374.11164806280175Q796.7829771847773 376.33318463605013 790.8357386501436 376.33318463605013L790.8357386501436 376.33318463605013L782.5281175064335 376.33318463605013Q776.6040199777713 376.33318463605013 771.3510116222777 374.11164806280175Q766.0980032667842 371.86697048358207 762.1871732576283 367.95614047442615Q758.2994842544435 364.0453104652701 756.0548066752239 358.8385841217193Q753.8101290960042 353.63185777816847 753.8101290960042 347.70776024950607L753.8101290960042 347.70776024950607L753.8101290960042 258.05950311654595L764.3161458069912 258.05950311654595L764.3161458069912 347.70776024950607Q764.3161458069912 351.6185902586621 765.7740291831855 354.974036124506Q767.2319125593797 358.35262299632114 769.8005642221981 360.92127465913967Q772.3692158850165 363.4899263219581 775.7478027568318 364.9478096981523Q779.1263896286471 366.4056930743465 783.0140786318316 366.4056930743465L783.0140786318316 366.4056930743465L790.3497775247456 366.4056930743465Q794.2606075339015 366.4056930743465 797.6391944057168 364.9478096981523Q800.9946402715607 363.4899263219581 803.5170099224364 360.92127465913967Q806.0393795733121 358.35262299632114 807.5204039554777 354.974036124506Q808.9782873316719 351.6185902586621 808.9782873316719 347.70776024950607L808.9782873316719 347.70776024950607L808.9782873316719 258.05950311654595L819.4611630366876 258.05950311654595L819.4611630366876 347.70776024950607ZM896.8446870048392 374.7133142180566L886.8246314192502 374.7133142180566L886.8246314192502 313.69048147164045Q886.8246314192502 310.68215069536666 885.6907221266547 308.04407601463424Q884.5568128340592 305.4060013339018 882.6129683324668 303.43901582633816Q880.6459828249032 301.4951713247458 878.0079081441706 300.3612620321503Q875.3698334634382 299.2042117335834 872.3615026871644 299.2042117335834L872.3615026871644 299.2042117335834L865.673751961448 299.2042117335834Q862.6654211851742 299.2042117335834 860.0273465044418 300.3612620321503Q857.3892718237094 301.4951713247458 855.4222863161456 303.43901582633816Q853.4784418145533 305.4060013339018 852.3445325219577 308.04407601463424Q851.2106232293622 310.68215069536666 851.2106232293622 313.69048147164045L851.2106232293622 313.69048147164045L851.2106232293622 374.7133142180566L841.1905676437732 374.7133142180566L841.1905676437732 291.40569272124276L844.5228725036459 291.40569272124276L849.9841499128814 299.87530090675216Q853.4090187966392 295.2239587065135 858.5694631282475 292.49332000189565Q863.7299074598557 289.78582230324923 869.8391330362887 289.78582230324923L869.8391330362887 289.78582230324923L872.3615026871644 289.78582230324923Q877.406241988916 289.78582230324923 881.872456141384 291.6833847928989Q886.3386702938521 293.60408828851985 889.6709751537246 296.9363931483924Q893.0264210195685 300.2686980082649 894.9239835092181 304.75805316670437Q896.8446870048392 309.22426731917244 896.8446870048392 314.2690066209239L896.8446870048392 314.2690066209239L896.8446870048392 374.7133142180566ZM931.0008118185328 271.38872255603616L919.3840268209215 271.38872255603616L919.3840268209215 258.05950311654595L931.0008118185328 258.05950311654595L931.0008118185328 271.38872255603616ZM930.190876609536 374.7133142180566L920.1939620299183 374.7133142180566L920.1939620299183 291.40569272124276L930.190876609536 291.40569272124276L930.190876609536 374.7133142180566ZM1009.1942709956811 408.05950382275336L999.1973564160634 408.05950382275336L999.1973564160634 367.7247304147127Q995.7724875323055 371.77440645969676 990.9591582902674 374.06536605085915Q986.1689700542006 376.33318463605013 980.5457056031657 376.33318463605013L980.5457056031657 376.33318463605013L978.0233359522899 376.33318463605013Q972.9785966505384 376.33318463605013 968.5123824980703 374.4356221464005Q964.0461683456023 372.5149186507795 960.7138634857297 369.18261379090694Q957.3584176198858 365.8503089310345 955.4608551302362 361.360953772595Q953.5401516346153 356.8947396201269 953.5401516346153 351.8500003183754L953.5401516346153 351.8500003183754L953.5401516346153 314.2690066209239Q953.5401516346153 309.22426731917244 955.4608551302362 304.75805316670437Q957.3584176198858 300.2686980082649 960.7138634857297 296.9363931483924Q964.0461683456023 293.60408828851985 968.5123824980703 291.6833847928989Q972.9785966505384 289.78582230324923 978.0233359522899 289.78582230324923L978.0233359522899 289.78582230324923L980.5457056031657 289.78582230324923Q986.6549311795986 289.78582230324923 991.7922345052355 292.49332000189565Q996.906396824901 295.2239587065135 1000.331265708659 299.87530090675216L1000.331265708659 299.87530090675216L1005.8619661358084 291.40569272124276L1009.1942709956811 291.40569272124276L1009.1942709956811 408.05950382275336ZM999.1973564160634 352.42852546765886L999.1973564160634 313.69048147164045Q999.1973564160634 310.68215069536666 998.0403061174966 308.04407601463424Q996.906396824901 305.4060013339018 994.9625523233087 303.43901582633816Q992.995566815745 301.4951713247458 990.3574921350125 300.3612620321503Q987.7194174542801 299.2042117335834 984.7110866780063 299.2042117335834L984.7110866780063 299.2042117335834L978.0233359522899 299.2042117335834Q975.0150051760161 299.2042117335834 972.3769304952837 300.3612620321503Q969.7388558145512 301.4951713247458 967.7718703069875 303.43901582633816Q965.8280258053952 305.4060013339018 964.6941165127996 308.04407601463424Q963.5602072202041 310.68215069536666 963.5602072202041 313.69048147164045L963.5602072202041 313.69048147164045L963.5602072202041 352.42852546765886Q963.5602072202041 355.4368562439327 964.6941165127996 358.0749309246651Q965.8280258053952 360.71300560539754 967.7718703069875 362.6799911129612Q969.7388558145512 364.62383561455357 972.3769304952837 365.75774490714906Q975.0150051760161 366.89165419974455 978.0233359522899 366.89165419974455L978.0233359522899 366.89165419974455L984.7110866780063 366.89165419974455Q987.7194174542801 366.89165419974455 990.3574921350125 365.75774490714906Q992.995566815745 364.62383561455357 994.9625523233087 362.6799911129612Q996.906396824901 360.71300560539754 998.0403061174966 358.0749309246651Q999.1973564160634 355.4368562439327 999.1973564160634 352.42852546765886L999.1973564160634 352.42852546765886Z " fill="#f7f7f7" transform="matrix(0.8670282859511218,0,0,0.8670282859511218,0,11.227995385265814)"/></g></svg>